<svg id="Capa_1" data-name="Capa 1" xmlns="http://www.w3.org/2000/svg" viewBox="0 0 632.62 633.5"><defs><style>.cls-1{fill:none;stroke:#fff;stroke-miterlimit:10;stroke-width:3px;}</style></defs><title>inspirate</title><path class="cls-1" d="M137,320.87V140.08a4.48,4.48,0,0,1,4.63-4.63h36.11a4.69,4.69,0,0,1,4.88,4.63V320.87a4.69,4.69,0,0,1-4.64,4.88H141.9A4.74,4.74,0,0,1,137,320.87Z" transform="translate(-125.76 -132.24)"/><path class="cls-1" d="M389,140.33V321.11a4.64,4.64,0,0,1-4.64,4.64H348.78c-3.66,0-6.1-1.47-8.29-4.39l-77.83-113V320.87a4.69,4.69,0,0,1-4.64,4.88h-36.1a4.74,4.74,0,0,1-4.88-4.88V140.08a4.63,4.63,0,0,1,4.63-4.63h35.62a9.3,9.3,0,0,1,8.3,4.39l77.83,108.32V140.33a4.69,4.69,0,0,1,4.63-4.88h36.11A4.74,4.74,0,0,1,389,140.33Z" transform="translate(-125.76 -132.24)"/><path class="cls-1" d="M435.39,267.44a6.62,6.62,0,0,1,9.52-1.47c6.58,5.61,19.51,18.06,38.3,18.06,12.44,0,20.25-5.86,20.25-14.15,0-7.57-6.59-11.47-16.35-16.11-40.5-20.25-68.06-33.42-68.06-64.65,0-29.27,24.39-55.38,65.38-55.38,32.45,0,51.72,16.35,58.07,21,2.68,2.2,3.66,5.61,1.46,8.79l-18.3,23.9c-3.41,4.64-6.83,5.86-10.49,3.18-4.88-3.18-20.74-13.42-33.42-13.42-9.52,0-16.11,3.66-16.11,11.46,0,6.59,4.4,10.49,16.84,16.11,36.35,17.56,67.58,31.22,67.58,65.62,0,32.94-27.33,57.09-67.34,57.09-37.57,0-58.55-21.71-64.41-27.08-2.44-1.95-3.66-4.39-.73-8.54Z" transform="translate(-125.76 -132.24)"/><path class="cls-1" d="M289.5,423c0,35.13-23.42,68.31-68.8,68.31H182.64v48.79A4.69,4.69,0,0,1,178,545H141.9a4.74,4.74,0,0,1-4.88-4.88V359.33a4.49,4.49,0,0,1,4.63-4.64h79C265.83,354.69,289.5,387.87,289.5,423Zm-45.62,0c0-16.11-9-27.33-24.4-27.33H182.64v54.65h36.84C234.85,450.33,243.88,438.86,243.88,423Z" transform="translate(-125.76 -132.24)"/><path class="cls-1" d="M313.9,540.11V359.33a4.49,4.49,0,0,1,4.63-4.64h36.11a4.7,4.7,0,0,1,4.88,4.64V540.11a4.69,4.69,0,0,1-4.64,4.88H318.77A4.74,4.74,0,0,1,313.9,540.11Z" transform="translate(-125.76 -132.24)"/><path class="cls-1" d="M542.49,545H509.8c-3.9,0-6.59-1.46-8.29-4.63l-30-49h-32v48.79A4.69,4.69,0,0,1,434.9,545H398.79a4.74,4.74,0,0,1-4.88-4.88V359.33a4.5,4.5,0,0,1,4.64-4.64H477.6c45.13,0,68.8,33.18,68.8,68.32,0,24.15-11,47.33-32.69,59.52l33.42,54.17C549.81,541.33,548.11,545,542.49,545ZM439.54,450.33h36.84c15.37,0,24.39-11.47,24.39-27.32,0-16.11-9-27.33-24.39-27.33H439.54Z" transform="translate(-125.76 -132.24)"/><path class="cls-1" d="M752.55,545H714c-2.69,0-4.4-2.19-6.1-6.1l-6.59-15.12H617.88l-6.83,15.12c-1.71,3.91-3.42,6.1-5.86,6.1H566.4c-2.93,0-5.61-2.19-3.66-6.59l81.49-179.8c1.22-2.2,2.93-3.91,5.37-3.91h19.76c2.44,0,4.15,1.71,5.37,3.91l81.48,179.8C758.17,542.8,755.48,545,752.55,545ZM685,486.93,659.6,429.59l-25.37,57.34Z" transform="translate(-125.76 -132.24)"/><path class="cls-1" d="M265.83,578.57v31.48a4.69,4.69,0,0,1-4.63,4.88H218.26V759.36a4.69,4.69,0,0,1-4.64,4.88h-36.1a4.75,4.75,0,0,1-4.88-4.88V614.93h-40.5a4.85,4.85,0,0,1-4.88-4.64V578.82a4.74,4.74,0,0,1,4.88-4.88H261.2A4.35,4.35,0,0,1,265.83,578.57Z" transform="translate(-125.76 -132.24)"/><path class="cls-1" d="M420.27,727.89v31.47a4.75,4.75,0,0,1-4.88,4.88H294.87a4.86,4.86,0,0,1-4.64-4.88V578.57a4.48,4.48,0,0,1,4.64-4.63H412.7a4.84,4.84,0,0,1,4.88,4.63v31.48a4.75,4.75,0,0,1-4.88,4.88H335.85v32.44h57.34a4.7,4.7,0,0,1,4.88,4.64v31.47a4.61,4.61,0,0,1-4.88,4.88H335.85v34.89h79.54A4.84,4.84,0,0,1,420.27,727.89Z" transform="translate(-125.76 -132.24)"/></svg>