<svg id="Capa_1" data-name="Capa 1" xmlns="http://www.w3.org/2000/svg" viewBox="0 0 587.25 633.5"><defs><style>.cls-1{fill:none;stroke:#fff;stroke-miterlimit:10;stroke-width:3px;}</style></defs><title>motivate</title><path class="cls-1" d="M375.14,171.57V352.36a4.86,4.86,0,0,1-4.64,4.88H334.39a4.61,4.61,0,0,1-4.88-4.88V253.3L270,351.38c-1.46,2.69-3.17,3.42-5.61,3.42h-1.71c-2.44,0-4.14-.73-5.61-3.42l-59.53-97.83v98.81a4.69,4.69,0,0,1-4.63,4.88H156.78a4.74,4.74,0,0,1-4.88-4.88V171.57a4.63,4.63,0,0,1,4.64-4.63h34.88a6.36,6.36,0,0,1,5.37,3.17L263.64,279.9l66.61-109.79a6.34,6.34,0,0,1,5.36-3.17H370.5A4.63,4.63,0,0,1,375.14,171.57Z" transform="translate(-140.64 -163.73)"/><path class="cls-1" d="M402,262.09c0-53.68,41.23-96.86,98.57-96.86,57.09,0,98.32,43.18,98.32,96.86S557.63,359,500.54,359C443.2,359,402,315.76,402,262.09Zm150.29,0c0-29.52-21.47-52.7-51.72-52.46s-51.73,22.94-51.73,52.46,21.47,52.45,51.73,52.45S552.26,291.61,552.26,262.09Z" transform="translate(-140.64 -163.73)"/><path class="cls-1" d="M280.72,390.82v31.47a4.69,4.69,0,0,1-4.64,4.88H233.14V571.6a4.69,4.69,0,0,1-4.63,4.88H192.4a4.74,4.74,0,0,1-4.88-4.88V427.17H147a4.84,4.84,0,0,1-4.88-4.63V391.06a4.75,4.75,0,0,1,4.88-4.88H276.08A4.36,4.36,0,0,1,280.72,390.82Z" transform="translate(-140.64 -163.73)"/><path class="cls-1" d="M305.11,571.6V390.82a4.5,4.5,0,0,1,4.64-4.64h36.11a4.7,4.7,0,0,1,4.88,4.64V571.6a4.69,4.69,0,0,1-4.64,4.88H310A4.74,4.74,0,0,1,305.11,571.6Z" transform="translate(-140.64 -163.73)"/><path class="cls-1" d="M455.15,572.58,373.67,392.77c-1.95-4.39.73-6.59,3.66-6.59h38.79c2.44,0,4.15,2.2,5.85,6.1l48.55,109.3,48.31-109.3c1.71-3.9,3.42-6.1,6.1-6.1h38.55c2.93,0,5.61,2.2,3.66,6.59L485.65,572.58c-1.22,2.19-2.93,3.9-5.37,3.9H460.52C458.08,576.48,456.37,574.77,455.15,572.58Z" transform="translate(-140.64 -163.73)"/><path class="cls-1" d="M722.06,576.48H683.52c-2.69,0-4.4-2.19-6.1-6.1l-6.59-15.12H587.39l-6.83,15.12c-1.71,3.91-3.42,6.1-5.86,6.1H535.91c-2.93,0-5.61-2.19-3.66-6.58l81.49-179.81c1.22-2.2,2.93-3.91,5.37-3.91h19.76c2.44,0,4.15,1.71,5.37,3.91L725.72,569.9C727.67,574.29,725,576.48,722.06,576.48Zm-67.58-58.06-25.37-57.34-25.37,57.34Z" transform="translate(-140.64 -163.73)"/><path class="cls-1" d="M280.72,610.06v31.48a4.69,4.69,0,0,1-4.64,4.88H233.14V790.85a4.69,4.69,0,0,1-4.63,4.88H192.4a4.74,4.74,0,0,1-4.88-4.88V646.42H147a4.84,4.84,0,0,1-4.88-4.64V610.31a4.74,4.74,0,0,1,4.88-4.88H276.08A4.35,4.35,0,0,1,280.72,610.06Z" transform="translate(-140.64 -163.73)"/><path class="cls-1" d="M435.15,759.38v31.47a4.74,4.74,0,0,1-4.88,4.88H309.75a4.86,4.86,0,0,1-4.64-4.88V610.06a4.49,4.49,0,0,1,4.64-4.63H427.59a4.84,4.84,0,0,1,4.88,4.63v31.48a4.74,4.74,0,0,1-4.88,4.88H350.74v32.44h57.33A4.7,4.7,0,0,1,413,683.5V715a4.61,4.61,0,0,1-4.88,4.88H350.74v34.89h79.53A4.84,4.84,0,0,1,435.15,759.38Z" transform="translate(-140.64 -163.73)"/></svg>