<svg id="Capa_1" data-name="Capa 1" xmlns="http://www.w3.org/2000/svg" viewBox="0 0 489.23 631.79"><defs><style>.cls-1{fill:none;stroke:#fff;stroke-miterlimit:10;stroke-width:3px;}</style></defs><title>participa</title><path class="cls-1" d="M289.5,203.76c0,35.13-23.42,68.31-68.8,68.31H182.64v48.8a4.69,4.69,0,0,1-4.64,4.88H141.9a4.74,4.74,0,0,1-4.88-4.88V140.08a4.48,4.48,0,0,1,4.63-4.63h79C265.83,135.45,289.5,168.63,289.5,203.76Zm-45.62,0c0-16.1-9-27.32-24.4-27.32H182.64v54.65h36.84C234.85,231.09,243.88,219.62,243.88,203.76Z" transform="translate(-125.76 -133.95)"/><path class="cls-1" d="M470.53,325.75H432c-2.68,0-4.39-2.2-6.1-6.1l-6.58-15.13H335.86L329,319.65c-1.7,3.9-3.41,6.1-5.85,6.1H284.38c-2.93,0-5.61-2.2-3.66-6.59l81.49-179.81c1.22-2.19,2.92-3.9,5.36-3.9h19.76c2.44,0,4.15,1.71,5.37,3.9l81.49,179.81C476.14,323.55,473.46,325.75,470.53,325.75ZM403,267.68l-25.37-57.33L352.2,267.68Z" transform="translate(-125.76 -133.95)"/><path class="cls-1" d="M265.83,359.33V390.8a4.69,4.69,0,0,1-4.63,4.88H218.26V540.11a4.69,4.69,0,0,1-4.64,4.88h-36.1a4.74,4.74,0,0,1-4.88-4.88V395.68h-40.5a4.84,4.84,0,0,1-4.88-4.63V359.57a4.75,4.75,0,0,1,4.88-4.88H261.2A4.35,4.35,0,0,1,265.83,359.33Z" transform="translate(-125.76 -133.95)"/><path class="cls-1" d="M290.23,540.11V359.33a4.49,4.49,0,0,1,4.64-4.64H331a4.69,4.69,0,0,1,4.88,4.64V540.11a4.69,4.69,0,0,1-4.63,4.88H295.11A4.74,4.74,0,0,1,290.23,540.11Z" transform="translate(-125.76 -133.95)"/><path class="cls-1" d="M362.93,449.84c0-56.11,42.21-96.85,98.81-96.85,29.52,0,53.92,11.46,72.46,30q3.3,3.3,0,6.59l-27.08,24.15c-2.2,1.71-4.39,1.71-6.59-.24-9.76-9.51-21.47-16.1-38.06-16.1-30.49,0-52.7,22.93-52.7,52.45S432,502.3,462.47,502.3c16.59,0,28.3-6.59,38.06-16.11,2.2-1.95,4.39-1.95,6.59-.24L534.2,510.1q3.3,3.3,0,6.59c-18.54,18.54-42.94,30-72.46,30C405.14,546.7,362.93,506,362.93,449.84Z" transform="translate(-125.76 -133.95)"/><path class="cls-1" d="M567.86,540.11V359.33a4.49,4.49,0,0,1,4.64-4.64h36.1a4.69,4.69,0,0,1,4.88,4.64V540.11a4.69,4.69,0,0,1-4.63,4.88H572.74A4.74,4.74,0,0,1,567.86,540.11Z" transform="translate(-125.76 -133.95)"/><path class="cls-1" d="M289.5,642.25c0,35.13-23.42,68.31-68.8,68.31H182.64v48.8a4.69,4.69,0,0,1-4.64,4.88H141.9a4.74,4.74,0,0,1-4.88-4.88V578.57a4.48,4.48,0,0,1,4.63-4.63h79C265.83,573.94,289.5,607.12,289.5,642.25Zm-45.62,0c0-16.1-9-27.32-24.4-27.32H182.64v54.65h36.84C234.85,669.58,243.88,658.11,243.88,642.25Z" transform="translate(-125.76 -133.95)"/><path class="cls-1" d="M470.53,764.24H432c-2.68,0-4.39-2.2-6.1-6.1L419.3,743H335.86L329,758.14c-1.7,3.9-3.41,6.1-5.85,6.1H284.38c-2.93,0-5.61-2.2-3.66-6.59l81.49-179.81c1.22-2.19,2.92-3.9,5.36-3.9h19.76c2.44,0,4.15,1.71,5.37,3.9l81.49,179.81C476.14,762,473.46,764.24,470.53,764.24ZM403,706.17l-25.37-57.33L352.2,706.17Z" transform="translate(-125.76 -133.95)"/></svg>