<?xml version="1.0" encoding="utf-8"?>
<!-- Generator: Adobe Illustrator 23.1.1, SVG Export Plug-In . SVG Version: 6.00 Build 0)  -->
<svg version="1.1" id="Capa_1" xmlns="http://www.w3.org/2000/svg" xmlns:xlink="http://www.w3.org/1999/xlink" x="0px" y="0px"
	 viewBox="0 0 541.2 636.8" style="enable-background:new 0 0 541.2 636.8;" xml:space="preserve">
<style type="text/css">
	.st0{fill:none;stroke:#FFFFFF;stroke-width:3.0949;stroke-miterlimit:10;}
</style>
<title>participa</title>
<g>
	<path class="st0" d="M166.6,69.7c0,34.9-23,69-70.6,69H50.2v54.6c0,2.3-1.5,4.3-4,4.3H17.1c-2.5,0-4.3-1.8-4.3-4.3V4.4
		c0-2.3,1.5-4,4.3-4H96C143.5,0.4,166.6,34.5,166.6,69.7z M129.4,69.7c0-20-11.9-35.7-34.1-35.7h-45v71.1h45
		C117.5,105.1,129.4,89.4,129.4,69.7z"/>
	<path class="st0" d="M352.7,197.6h-31.1c-2.3,0-3.8-2-5.3-5.6l-9.4-21h-98.4l-9.4,21c-1.8,3.5-3,5.6-5.6,5.6h-31.1
		c-2.5,0-4.8-2-3-5.8L244.7,3.9c1-2,2.5-3.5,4.8-3.5h16.2c2.3,0,3.8,1.5,4.8,3.5L356,191.8C357.8,195.6,355.2,197.6,352.7,197.6z
		 M293.5,141l-35.9-79.9L221.9,141H293.5z"/>
	<path class="st0" d="M530.5,197.6h-26.6c-3.3,0-5.6-1.3-7.3-4L462,138.7h-44v54.6c0,2.3-1.5,4.3-4,4.3h-29.1
		c-2.5,0-4.3-1.8-4.3-4.3V4.4c0-2.3,1.5-4,4.3-4h78.9c47.5,0,70.6,34.1,70.6,69.3c0,25.5-12.1,50.6-37.4,62.2l37.4,58.9
		C536.6,194.6,535,197.6,530.5,197.6z M417.9,105.1h45c22.3,0,34.1-15.7,34.1-35.4c0-20-11.9-35.7-34.1-35.7h-45V105.1z"/>
	<path class="st0" d="M143,223.4v25.3c0,2.5-1.8,4.3-4,4.3H90.7v159.3c0,2.3-1.5,4.3-4,4.3H57.5c-2.5,0-4.3-1.8-4.3-4.3V253h-46
		c-2.5,0-4.6-1.5-4.6-4v-25.3c0-2.5,1.8-4.3,4.6-4.3H139C141.3,219.4,143,220.9,143,223.4z"/>
	<path class="st0" d="M168.8,412.3V223.4c0-2.3,1.5-4,4.3-4H202c2.5,0,4.3,1.8,4.3,4v188.9c0,2.3-1.5,4.3-4,4.3h-29.1
		C170.6,416.6,168.8,414.9,168.8,412.3z"/>
	<path class="st0" d="M234.8,318c0-57.9,44-100.4,102.7-100.4c29.6,0,54.9,11.1,73.9,30.1c2.3,2.3,2.5,4.3,0.5,6.3l-21.8,19.2
		c-1.8,1.8-3.8,1.8-5.8,0C373.9,263.1,359.8,254,338,254c-38.9,0-64.7,29.6-64.7,64s25.8,64,64.7,64c22,0,35.9-9.1,46.3-19.2
		c2-1.8,4-1.8,5.8,0l21.8,19.2c2,2,1.8,4-0.5,6.3c-19,19-44.3,30.1-73.9,30.1C278.8,418.4,234.8,375.9,234.8,318z"/>
	<path class="st0" d="M447,412.3V223.4c0-2.3,1.5-4,4.3-4h28.8c2.5,0,4.3,1.8,4.3,4v188.9c0,2.3-1.5,4.3-4,4.3h-29.1
		C448.8,416.6,447,414.9,447,412.3z"/>
	<path class="st0" d="M166.6,507.7c0,34.9-23,69-70.6,69H50.2v54.6c0,2.3-1.5,4.3-4,4.3H17.1c-2.5,0-4.3-1.8-4.3-4.3V442.4
		c0-2.3,1.5-4,4.3-4H96C143.5,438.4,166.6,472.5,166.6,507.7z M129.4,507.7c0-20-11.9-35.7-34.1-35.7h-45v71.1h45
		C117.5,543.1,129.4,527.4,129.4,507.7z"/>
	<path class="st0" d="M352.7,635.6h-31.1c-2.3,0-3.8-2-5.3-5.6l-9.4-21h-98.4l-9.4,21c-1.8,3.5-3,5.6-5.6,5.6h-31.1
		c-2.5,0-4.8-2-3-5.8l85.2-187.9c1-2,2.5-3.5,4.8-3.5h16.2c2.3,0,3.8,1.5,4.8,3.5L356,629.8C357.8,633.6,355.2,635.6,352.7,635.6z
		 M293.5,579l-35.9-79.9L221.9,579H293.5z"/>
</g>
</svg>
